<svg width="26" height="26" viewBox="0 0 26 26" fill="none" xmlns="http://www.w3.org/2000/svg">
<path d="M21.75 3.22223H4.02778C2.24819 3.22223 0.805555 4.66487 0.805555 6.44445V19.3333C0.805555 21.1129 2.24819 22.5556 4.02778 22.5556H21.75C23.5296 22.5556 24.9722 21.1129 24.9722 19.3333V6.44445C24.9722 4.66487 23.5296 3.22223 21.75 3.22223Z" fill="white"/>
<path d="M1.31945 4.70928H24.4582C23.8855 3.81673 22.8898 3.22223 21.7499 3.22223H4.02773C2.88867 3.22223 1.89301 3.81673 1.31945 4.70928Z" fill="#A62842"/>
<path d="M1.63528 6.19633C1.62883 6.27931 1.61111 6.35906 1.61111 6.44445V7.6842H24.9722V6.44445C24.9722 6.35986 24.9545 6.28011 24.9481 6.19633H1.63528Z" fill="#A62842"/>
<path d="M1.61111 9.17125H24.9722V10.6583H1.61111V9.17125Z" fill="#A62842"/>
<path d="M1.61111 12.1454H24.9722V13.6324H1.61111V12.1454Z" fill="#A62842"/>
<path d="M0.805555 15.1195H24.9722V16.6065H0.805555V15.1195Z" fill="#A62842"/>
<path d="M0.805555 19.3333C0.805555 19.4179 0.824083 19.4977 0.830528 19.5814H24.9472C24.9537 19.4985 24.9722 19.4187 24.9722 19.3333V18.0936H0.805555V19.3333Z" fill="#A62842"/>
<path d="M24.4582 21.0685H1.31945C1.8922 21.9611 2.88787 22.5556 4.02773 22.5556H21.7499C22.889 22.5556 23.8847 21.9611 24.4582 21.0685Z" fill="#A62842"/>
<path d="M4.02778 3.22223H12.8889V13.6324H0.805555V6.44445C0.805555 4.66578 2.24911 3.22223 4.02778 3.22223Z" fill="#102D5E"/>
<path opacity="0.15" d="M21.75 3.22223H4.02778C2.24831 3.22223 0.805555 4.66498 0.805555 6.44445V19.3333C0.805555 21.1128 2.24831 22.5556 4.02778 22.5556H21.75C23.5295 22.5556 24.9722 21.1128 24.9722 19.3333V6.44445C24.9722 4.66498 23.5295 3.22223 21.75 3.22223ZM24.1667 19.3333C24.1667 20.6657 23.0824 21.75 21.75 21.75H4.02778C2.69539 21.75 1.61111 20.6657 1.61111 19.3333V6.44445C1.61111 5.11206 2.69539 4.02778 4.02778 4.02778H21.75C23.0824 4.02778 24.1667 5.11206 24.1667 6.44445V19.3333Z" fill="black"/>
<path opacity="0.2" d="M21.75 4.02777H4.02778C2.69297 4.02777 1.61111 5.10963 1.61111 6.44444V7.24999C1.61111 5.91519 2.69297 4.83333 4.02778 4.83333H21.75C23.0848 4.83333 24.1667 5.91519 24.1667 7.24999V6.44444C24.1667 5.10963 23.0848 4.02777 21.75 4.02777Z" fill="white"/>
<path d="M3.7064 6.01186L4.18329 5.66547H3.59443L3.41238 5.10561L3.23032 5.66547H2.64146L3.11754 6.01186L2.93549 6.57172L3.41238 6.22613L3.88846 6.57172L3.7064 6.01186Z" fill="white"/>
<path d="M6.10616 6.01186L6.58305 5.66547H5.99418L5.81213 5.10561L5.63007 5.66547H5.04121L5.5173 6.01186L5.33524 6.57172L5.81213 6.22613L6.28821 6.57172L6.10616 6.01186Z" fill="white"/>
<path d="M8.50672 6.01186L8.9828 5.66547H8.39394L8.21188 5.10561L8.02983 5.66547H7.44097L7.91705 6.01186L7.7358 6.57172L8.21188 6.22613L8.68797 6.57172L8.50672 6.01186Z" fill="white"/>
<path d="M4.88652 7.47797L5.3634 7.13238H4.77454L4.59249 6.57172L4.41043 7.13238H3.82157L4.29765 7.47797L4.1156 8.03863L4.59249 7.69224L5.06857 8.03863L4.88652 7.47797Z" fill="white"/>
<path d="M7.28707 7.47797L7.76316 7.13238H7.1743L6.99224 6.57172L6.81018 7.13238H6.22132L6.69741 7.47797L6.51616 8.03863L6.99224 7.69224L7.46832 8.03863L7.28707 7.47797Z" fill="white"/>
<path d="M9.68683 7.47797L10.1629 7.13238H9.57405L9.39199 6.57172L9.20994 7.13238H8.62108L9.09797 7.47797L8.91591 8.03863L9.39199 7.69224L9.86888 8.03863L9.68683 7.47797Z" fill="white"/>
<path d="M4.88652 10.411L5.3634 10.0646H4.77454L4.59249 9.50475L4.41043 10.0646H3.82157L4.29765 10.411L4.1156 10.9709L4.59249 10.6253L5.06857 10.9709L4.88652 10.411Z" fill="white"/>
<path d="M7.28707 10.411L7.76316 10.0646H7.1743L6.99224 9.50475L6.81018 10.0646H6.22132L6.69741 10.411L6.51616 10.9709L6.99224 10.6253L7.46832 10.9709L7.28707 10.411Z" fill="white"/>
<path d="M9.68683 10.411L10.1629 10.0646H9.57405L9.39199 9.50475L9.20994 10.0646H8.62108L9.09797 10.411L8.91591 10.9709L9.39199 10.6253L9.86888 10.9709L9.68683 10.411Z" fill="white"/>
<path d="M10.9064 6.01186L11.3825 5.66547H10.7936L10.6115 5.10561L10.4295 5.66547H9.84062L10.3175 6.01186L10.1355 6.57172L10.6115 6.22613L11.0884 6.57172L10.9064 6.01186Z" fill="white"/>
<path d="M3.7064 8.94489L4.18329 8.5985H3.59443L3.41238 8.03864L3.23032 8.5985H2.64146L3.11754 8.94489L2.93549 9.50475L3.41238 9.15836L3.88846 9.50475L3.7064 8.94489Z" fill="white"/>
<path d="M6.10616 8.94489L6.58305 8.5985H5.99418L5.81213 8.03864L5.63007 8.5985H5.04121L5.5173 8.94489L5.33524 9.50475L5.81213 9.15836L6.28821 9.50475L6.10616 8.94489Z" fill="white"/>
<path d="M8.50672 8.94489L8.9828 8.5985H8.39394L8.21188 8.03864L8.02983 8.5985H7.44097L7.91705 8.94489L7.7358 9.50475L8.21188 9.15836L8.68797 9.50475L8.50672 8.94489Z" fill="white"/>
<path d="M10.9064 8.94489L11.3825 8.5985H10.7936L10.6115 8.03864L10.4295 8.5985H9.84062L10.3175 8.94489L10.1355 9.50475L10.6115 9.15836L11.0884 9.50475L10.9064 8.94489Z" fill="white"/>
<path d="M3.7064 11.8771L4.18329 11.5315H3.59443L3.41238 10.9709L3.23032 11.5315H2.64146L3.11754 11.8771L2.93549 12.4378L3.41238 12.0914L3.88846 12.4378L3.7064 11.8771Z" fill="white"/>
<path d="M6.10616 11.8771L6.58305 11.5315H5.99418L5.81213 10.9709L5.63007 11.5315H5.04121L5.5173 11.8771L5.33524 12.4378L5.81213 12.0914L6.28821 12.4378L6.10616 11.8771Z" fill="white"/>
<path d="M8.50672 11.8771L8.9828 11.5315H8.39394L8.21188 10.9709L8.02983 11.5315H7.44097L7.91705 11.8771L7.7358 12.4378L8.21188 12.0914L8.68797 12.4378L8.50672 11.8771Z" fill="white"/>
<path d="M10.9064 11.8771L11.3825 11.5315H10.7936L10.6115 10.9709L10.4295 11.5315H9.84062L10.3175 11.8771L10.1355 12.4378L10.6115 12.0914L11.0884 12.4378L10.9064 11.8771Z" fill="white"/>
</svg>
