<svg width="65" height="24" viewBox="0 0 65 24" fill="none" xmlns="http://www.w3.org/2000/svg">
<path d="M60.0937 6.07031H58.4482C58.4474 6.07031 58.4464 6.07058 58.4459 6.07058C58.0692 6.07058 57.686 6.3254 57.5793 6.64994C57.575 6.66307 57.5676 6.67565 57.5641 6.68932C57.5641 6.68932 57.5249 6.84762 57.4569 7.12131L55.1966 16.1795C55.1443 16.3843 55.1094 16.5177 55.0989 16.5524L55.1032 16.5573C55.025 16.874 55.2402 17.1358 55.5937 17.1651L55.5983 17.1712H57.3063C57.6805 17.1712 58.0602 16.9185 58.1703 16.598C58.1756 16.5825 58.1839 16.568 58.1879 16.5524L60.6535 6.68877L60.6498 6.68768C60.7335 6.35029 60.4877 6.07031 60.0937 6.07031ZM51.6537 14.9729C51.4254 15.1 51.1843 15.2087 50.9316 15.3015C50.5921 15.4226 50.2702 15.486 49.9724 15.486C49.5153 15.486 49.164 15.4289 48.9265 15.3067C48.6887 15.1907 48.564 14.9892 48.5681 14.7008C48.5681 14.3678 48.655 14.1093 48.835 13.9068C49.0162 13.7118 49.2855 13.5549 49.6195 13.4379C49.9517 13.3384 50.3602 13.2564 50.8318 13.1975C51.2511 13.1508 52.0802 13.0663 52.1862 13.0657C52.2923 13.065 52.3628 13.0133 52.3155 13.2632C52.2945 13.3717 52.0551 14.2407 51.9453 14.6357C51.9135 14.7541 51.7354 14.9266 51.6537 14.9729ZM54.9076 8.86587C54.2093 8.52137 53.1171 8.34721 51.6225 8.34721C50.8834 8.34721 50.1406 8.3997 49.3953 8.50196C48.8483 8.57606 48.792 8.58836 48.4521 8.65371C47.7529 8.78823 47.645 9.40723 47.645 9.40723L47.4205 10.2236C47.2931 10.7459 47.6295 10.7243 47.7795 10.6838C48.0848 10.6024 48.2502 10.5213 48.873 10.3967C49.4683 10.2772 50.0973 10.1878 50.5992 10.1914C51.3352 10.1914 51.8949 10.2627 52.267 10.4C52.6393 10.5435 52.8236 10.7879 52.8236 11.1377C52.8248 11.2208 52.8273 11.2992 52.7932 11.3679C52.7627 11.4318 52.7039 11.4936 52.5279 11.5147C51.4774 11.57 50.7235 11.6547 49.8156 11.7717C48.9197 11.8833 48.1358 12.0743 47.4805 12.339C46.7819 12.613 46.2593 12.9796 45.899 13.4442C45.5483 13.9109 45.3721 14.4761 45.3711 15.1418C45.3711 15.7709 45.6269 16.2841 46.1216 16.6824C46.6224 17.0756 47.2736 17.2703 48.0616 17.2703C48.5538 17.2673 48.9392 17.2359 49.2153 17.1749C49.4888 17.1139 49.7868 17.0273 50.1016 16.9067C50.337 16.8197 50.5908 16.6939 50.859 16.5362C51.1274 16.3779 51.3132 16.2655 51.5516 16.1275L51.5603 16.1406L51.4932 16.4022C51.4929 16.4047 51.4889 16.406 51.4889 16.4085L51.4911 16.4134C51.4144 16.7287 51.6287 16.9909 51.9818 17.0218L51.9862 17.0273H52.0174L52.0187 17.0286C52.253 17.0286 53.0577 17.0283 53.4337 17.0273H53.6962C53.7135 17.0273 53.7154 17.0226 53.7222 17.019C54.0828 16.9799 54.4285 16.7202 54.5099 16.4085L55.8529 11.2834C55.8838 11.1628 55.9083 11.0236 55.9228 10.8634C55.9395 10.7015 55.9593 10.5684 55.9534 10.4722C55.9565 9.74681 55.604 9.21064 54.9076 8.86587ZM46.8202 7.69848C46.5911 7.30422 46.245 6.98679 45.8074 6.73962C45.3587 6.49301 44.8255 6.32103 44.2084 6.22069C43.5979 6.12609 42.8721 6.07195 42.0452 6.07031L38.1976 6.07195C37.8014 6.07796 37.4127 6.35302 37.3212 6.69178L34.7344 16.6445C34.64 16.9827 34.8973 17.2647 35.2864 17.2627L37.1326 17.2598C37.5241 17.2627 37.923 16.9827 38.0154 16.6445L38.6395 14.2292C38.727 13.8907 39.125 13.6072 39.523 13.6122H40.0478C42.2996 13.6122 44.0457 13.2031 45.2959 12.3889C46.5431 11.5705 47.1709 10.4972 47.1709 9.16206C47.1668 8.57915 47.0546 8.0881 46.8202 7.69848ZM42.8507 10.9537C42.2996 11.3081 41.5263 11.4858 40.5311 11.4858H40.0734C39.6776 11.4899 39.4219 11.2069 39.5159 10.8676L40.0675 8.75522C40.1499 8.42111 40.5516 8.13676 40.9418 8.1395L41.5464 8.13676C42.2521 8.1395 42.7799 8.24394 43.1445 8.45147C43.5029 8.66145 43.6768 8.98708 43.6795 9.42098C43.6811 10.0823 43.4043 10.5912 42.8507 10.9537Z" fill="#139AD6"/>
<path d="M33.7768 8.34351C33.4269 8.34351 32.968 8.59528 32.7507 8.89955C32.7507 8.89955 30.4102 12.4674 30.1803 12.8238C30.0554 13.0155 29.9288 12.8937 29.9077 12.8224C29.8907 12.7357 29.1824 8.92299 29.1824 8.92299C29.1027 8.61603 28.7421 8.35254 28.2911 8.35376L26.8318 8.35572C26.4799 8.35572 26.2605 8.60627 26.3387 8.90907C26.3387 8.90907 27.4543 14.5316 27.6719 15.8539C27.7803 16.5853 27.6606 16.715 27.6606 16.715L26.2144 18.9572C26.0026 19.2612 26.1185 19.5103 26.4686 19.5103L28.1599 19.5091C28.5101 19.5091 28.9739 19.2612 29.1824 18.9567L35.6884 9.17232C35.6884 9.17232 36.3108 8.33642 35.7369 8.34351C35.3455 8.34839 33.7768 8.34351 33.7768 8.34351ZM21.5618 14.9582C21.3338 15.0851 21.0933 15.1932 20.841 15.286C20.5018 15.4064 20.1788 15.4702 19.8824 15.4702C19.4271 15.4702 19.0753 15.4129 18.8378 15.2915C18.6007 15.1754 18.4756 14.9743 18.4796 14.686C18.4796 14.3543 18.5673 14.0956 18.7467 13.8936C18.9281 13.6988 19.1958 13.5418 19.5293 13.4252C19.8619 13.3253 20.2712 13.2445 20.7406 13.1858C21.1594 13.1392 21.9883 13.0551 22.0939 13.0537C22.199 13.0534 22.2696 13.0013 22.2224 13.2508C22.202 13.3591 21.9627 14.2271 21.8531 14.6213C21.82 14.7401 21.6422 14.9123 21.5618 14.9582ZM24.8114 8.86099C24.114 8.51706 23.0235 8.34346 21.5309 8.34346C20.7925 8.34346 20.051 8.39533 19.3064 8.49768C18.7591 8.57111 18.7042 8.58367 18.3644 8.6489C17.6658 8.78375 17.5583 9.40119 17.5583 9.40119L17.3342 10.2168C17.2072 10.7379 17.5435 10.7163 17.6926 10.6759C17.9968 10.5946 18.163 10.514 18.7851 10.3891C19.3786 10.2703 20.0077 10.1813 20.5083 10.1843C21.244 10.1843 21.8024 10.2553 22.174 10.3923C22.5461 10.5356 22.7292 10.7802 22.7292 11.129C22.7317 11.2121 22.7335 11.2906 22.7005 11.3586C22.6693 11.4231 22.61 11.4844 22.4343 11.5052C21.3864 11.5611 20.6338 11.6455 19.7254 11.7623C18.8308 11.8737 18.0482 12.0644 17.3934 12.3284C16.6958 12.602 16.1745 12.9686 15.8152 13.4321C15.4638 13.8977 15.2881 14.462 15.2874 15.1268C15.2874 15.7547 15.5432 16.2673 16.0367 16.6648C16.5371 17.0572 17.1868 17.2519 17.9738 17.2519C18.4657 17.2488 18.8502 17.217 19.1269 17.1566C19.3997 17.0952 19.6977 17.0092 20.0109 16.8888C20.2468 16.802 20.4997 16.6759 20.7678 16.5187C21.0353 16.3609 21.2218 16.2487 21.4608 16.1108L21.4683 16.1237L21.4012 16.3846C21.4006 16.3871 21.3969 16.3888 21.3969 16.3917L21.3997 16.3959C21.3231 16.7114 21.5365 16.9729 21.8895 17.0032L21.8938 17.0092H21.9247L21.9257 17.0111C22.1603 17.0111 22.9643 17.01 23.3389 17.0092H23.6014C23.619 17.0092 23.6214 17.004 23.627 17.0008C23.988 16.9606 24.3321 16.7018 24.4142 16.3917L25.7556 11.2746C25.7858 11.1545 25.8105 11.0155 25.824 10.8558C25.842 10.6934 25.8614 10.561 25.8562 10.4652C25.8592 9.74048 25.5066 9.2052 24.8114 8.86099ZM16.4216 7.6958C16.1928 7.30219 15.8471 6.98528 15.4102 6.73852C14.962 6.49231 14.4295 6.32061 13.8131 6.22044C13.2034 6.12599 12.4787 6.07194 11.6528 6.07031L7.81023 6.07194C7.41461 6.07795 7.0264 6.35255 6.93498 6.69075L4.35155 16.6271C4.25735 16.9648 4.51431 17.2462 4.90282 17.2443L6.74659 17.2413C7.13758 17.2443 7.53599 16.9648 7.62833 16.6271L8.25156 14.2158C8.33896 13.8779 8.73644 13.5948 9.13391 13.5997H9.65801C11.907 13.5997 13.6506 13.1914 14.8993 12.3785C16.1449 11.5615 16.7718 10.4899 16.7718 9.15697C16.7678 8.57501 16.6557 8.08478 16.4216 7.6958ZM12.4573 10.9457C11.907 11.2994 11.1346 11.4768 10.1407 11.4768H9.68364C9.28833 11.481 9.03292 11.1984 9.12681 10.8597L9.67778 8.75081C9.75993 8.41724 10.1611 8.13336 10.5509 8.13609L11.1546 8.13336C11.8594 8.13609 12.3866 8.24036 12.7507 8.44754C13.1086 8.65718 13.2822 8.98227 13.285 9.41546C13.2865 10.0758 13.0102 10.5837 12.4573 10.9457Z" fill="#263B80"/>
</svg>
