<svg width="264" height="395" viewBox="0 0 264 395" fill="none" xmlns="http://www.w3.org/2000/svg">
<path d="M131.871 0C48.5773 0 60.3246 127.077 131.871 127.077C203.417 127.077 215.165 0 131.871 0Z" fill="#E58411"/>
<path d="M131.87 120.387C121.74 120.387 118.025 127.89 118.025 134.232C118.025 140.574 144.657 140.833 144.657 134.232C144.657 127.631 140.574 120.387 131.87 120.387Z" fill="#AE0E14"/>
<path d="M94.4957 11.9863C55.1869 43.6391 73.8889 127.075 131.866 127.075C155.256 127.075 172.253 113.491 181.628 95.2066C172.43 103.176 160.634 108.156 146.489 108.156C97.9179 108.157 76.9222 49.6 94.4957 11.9863Z" fill="#AE0E14"/>
<path d="M149.189 115.929C143.866 114.134 135.883 117.659 131.873 123.309C127.862 117.659 119.88 114.136 114.556 115.929C112.828 116.512 108.912 118.627 109.9 125.632C110.387 129.086 111.917 131.455 114.449 132.672C115.738 133.291 117.195 133.54 118.704 133.54C123.593 133.54 129.037 130.928 131.217 129.766C134.025 138.005 142.935 168.934 128.53 194.246C126.287 191.487 122.943 189.32 118.533 187.781C98.684 180.848 91.8549 188.94 89.8414 192.741C86.188 199.636 88.621 209.561 95.1577 214.412C98.6396 216.998 108.179 221.579 121.534 208.348C124.128 205.777 126.377 203.084 128.322 200.305C131.285 210.396 122.367 226.164 112.941 242.829C98.2384 268.826 81.5745 298.289 104.287 316.659C104.57 316.888 104.91 317 105.248 317C105.694 317 106.138 316.806 106.439 316.432C106.972 315.774 106.87 314.811 106.213 314.279C85.5173 297.54 100.814 270.493 115.608 244.339C125.674 226.542 135.181 209.731 130.897 198.351C130.743 197.941 130.571 197.54 130.383 197.148C145.427 172.336 138.267 142.019 134.8 130.881C137.481 132.1 141.413 133.542 145.044 133.54C146.554 133.54 148.011 133.291 149.299 132.672C151.83 131.455 153.36 129.088 153.848 125.632C154.833 118.627 150.918 116.512 149.189 115.929ZM119.378 206.173C111.163 214.312 103.002 216.419 96.9828 211.953C91.5915 207.952 89.5612 199.809 92.5485 194.174C94.6662 190.179 98.8739 188.143 104.643 188.143C108.341 188.143 112.682 188.979 117.524 190.669C121.921 192.205 124.985 194.307 126.815 197.059C124.754 200.225 122.293 203.283 119.378 206.173ZM115.777 129.91C114.204 129.154 113.275 127.615 112.935 125.203C112.445 121.723 113.319 119.579 115.538 118.829C116.12 118.633 116.786 118.538 117.51 118.538C121.379 118.538 126.84 121.256 129.613 125.48C126.602 125.362 123.616 125.022 120.767 124.431C119.937 124.257 119.128 124.791 118.957 125.62C118.785 126.446 119.317 127.258 120.145 127.429C122.381 127.892 124.682 128.203 127.019 128.393C123.486 129.915 118.714 131.322 115.777 129.91ZM150.813 125.203C150.473 127.613 149.544 129.154 147.973 129.908C145.05 131.317 140.283 129.916 136.749 128.399C138.749 128.236 140.723 127.982 142.646 127.621C143.477 127.463 144.024 126.664 143.868 125.832C143.71 125.001 142.916 124.457 142.079 124.611C139.493 125.097 136.805 125.393 134.093 125.497C137.376 120.464 144.513 117.579 148.209 118.83C150.428 119.579 151.303 121.723 150.813 125.203Z" fill="#312D43"/>
<path d="M177.9 49.0944C178.663 50.0851 179.084 50.967 179.402 51.872C179.716 52.7692 179.888 53.6619 179.96 54.5546C180.042 55.4458 179.992 56.3384 179.759 57.2327C179.494 58.1284 179.125 59.0226 178.277 59.9383C176.453 61.9058 173.38 62.0237 171.413 60.2001C171.388 60.1771 171.365 60.1557 171.341 60.1327L171.14 59.9383C170.289 59.1099 169.897 58.2601 169.601 57.4118C169.338 56.5635 169.248 55.7122 169.28 54.8593C169.301 54.008 169.413 53.1581 169.647 52.3145C169.884 51.4784 170.217 50.6164 170.803 49.8722L171.448 49.0546C172.844 47.283 175.414 46.9783 177.187 48.3747C177.456 48.586 177.701 48.8387 177.9 49.0944Z" fill="white"/>
<path d="M131.872 9.9506C136.156 8.97064 140.676 8.78843 145.25 9.34731C149.817 9.90926 154.452 11.3379 158.727 13.6438C160.863 14.8014 162.891 16.1887 164.766 17.7581C166.605 19.3659 168.305 21.1344 169.738 23.0729C172.609 26.9545 174.595 31.3521 175.241 35.9334C175.671 38.9774 173.552 41.7932 170.508 42.2235C168.694 42.4792 166.959 41.83 165.763 40.6173L165.451 40.2973C162.865 37.6407 160.654 35.1938 158.263 33.1298C155.924 31.0213 153.521 29.2252 150.878 27.6389C148.222 26.0848 145.314 24.7787 142.129 23.6747C138.941 22.5722 135.519 21.6673 131.87 20.6689L131.647 20.6077C128.719 19.8069 126.995 16.7843 127.796 13.8582C128.348 11.8386 129.965 10.3916 131.872 9.9506Z" fill="white"/>
<path d="M205.418 68.4023C122.124 68.4023 133.871 195.479 205.418 195.479C276.964 195.479 288.712 68.4023 205.418 68.4023Z" fill="#FD70BF"/>
<path d="M205.417 188.789C195.287 188.789 191.572 196.292 191.572 202.634C191.572 208.976 218.204 209.235 218.204 202.634C218.204 196.032 214.121 188.789 205.417 188.789Z" fill="#0F2764"/>
<path d="M205.418 68.4023C122.124 68.4023 133.871 195.479 205.418 195.479C276.964 195.479 288.712 68.4023 205.418 68.4023Z" fill="#EFB570"/>
<path d="M168.048 80.3887C128.74 112.041 147.442 195.478 205.419 195.478C228.809 195.478 245.805 181.893 255.181 163.609C245.983 171.579 234.187 176.558 220.042 176.558C171.469 176.56 150.473 118.002 168.048 80.3887Z" fill="#E58411"/>
<path d="M222.731 184.33C217.409 182.531 209.427 186.059 205.415 191.71C201.403 186.06 193.42 182.534 188.099 184.33C186.37 184.913 182.455 187.028 183.443 194.033C183.929 197.487 185.461 199.856 187.992 201.072C189.281 201.691 190.737 201.94 192.247 201.94C197.753 201.94 203.959 198.63 205.415 197.807C206.871 198.628 213.076 201.94 218.583 201.94C220.093 201.94 221.551 201.691 222.839 201.072C225.37 199.856 226.899 197.487 227.386 194.033C228.375 187.028 224.462 184.913 222.731 184.33ZM189.318 198.31C187.747 197.553 186.817 196.016 186.477 193.604C185.987 190.124 186.862 187.979 189.08 187.23C189.662 187.034 190.328 186.939 191.053 186.939C194.923 186.939 200.384 189.657 203.155 193.881C200.146 193.764 197.16 193.422 194.308 192.833C193.476 192.664 192.669 193.194 192.498 194.022C192.327 194.851 192.859 195.661 193.688 195.832C195.922 196.295 198.222 196.604 200.554 196.794C197.02 198.314 192.245 199.72 189.318 198.31ZM224.354 193.606C224.014 196.016 223.085 197.555 221.516 198.311C218.594 199.718 213.827 198.319 210.293 196.801C212.292 196.639 214.265 196.385 216.19 196.022C217.022 195.864 217.568 195.064 217.412 194.234C217.256 193.404 216.46 192.856 215.624 193.012C213.036 193.5 210.347 193.796 207.635 193.898C210.917 188.865 218.054 185.981 221.753 187.23C223.97 187.98 224.846 190.125 224.354 193.606Z" fill="#312D43"/>
<path d="M251.446 117.497C252.208 118.488 252.629 119.37 252.948 120.275C253.262 121.172 253.433 122.065 253.505 122.957C253.588 123.849 253.537 124.741 253.304 125.635C253.04 126.531 252.671 127.425 251.824 128.341C250 130.309 246.927 130.427 244.959 128.603C244.935 128.581 244.912 128.559 244.888 128.536L244.687 128.341C243.836 127.513 243.444 126.663 243.148 125.815C242.885 124.966 242.794 124.115 242.827 123.262C242.848 122.411 242.96 121.561 243.194 120.717C243.431 119.881 243.764 119.019 244.35 118.275L244.995 117.457C246.393 115.684 248.962 115.381 250.734 116.778C251.002 116.989 251.247 117.241 251.446 117.497Z" fill="white"/>
<path d="M205.419 78.3539C209.703 77.374 214.223 77.1917 218.797 77.7506C223.365 78.3126 228 79.7412 232.275 82.0472C234.411 83.2047 236.438 84.592 238.314 86.1615C240.153 87.7692 241.852 89.5377 243.285 91.4762C246.156 95.3578 248.142 99.7554 248.79 104.337C249.22 107.381 247.1 110.197 244.057 110.627C242.241 110.883 240.508 110.233 239.312 109.021L239 108.699C236.413 106.042 234.202 103.596 231.812 101.532C229.473 99.4231 227.07 97.627 224.427 96.0407C221.771 94.4865 218.863 93.1804 215.678 92.0765C212.49 90.974 209.068 90.0691 205.419 89.0707L205.196 89.0095C202.268 88.2087 200.544 85.1861 201.345 82.2585C201.896 80.2419 203.513 78.7949 205.419 78.3539Z" fill="white"/>
<path d="M226.017 394.91C225.703 394.91 225.386 394.814 225.114 394.615C224.682 394.298 182.119 362.499 197.848 322.618C200.792 315.152 201.789 307.626 201.394 300.601C189.411 302.593 176.192 299.56 169.009 292.504C163.849 287.436 162.509 280.855 165.236 273.974C168.995 264.485 175.927 260.674 183.784 263.779C193.05 267.441 202.274 280.44 204.243 296.862C205.811 296.458 207.335 295.954 208.791 295.346C215.92 292.372 224.431 285.837 224.487 271.589C224.524 262.223 220.252 252.234 215.727 241.658C210.015 228.301 203.539 213.164 203.888 195.448C203.905 194.603 204.668 193.938 205.45 193.947C206.295 193.964 206.967 194.662 206.951 195.509C206.615 212.567 212.951 227.382 218.543 240.454C223.195 251.33 227.59 261.603 227.55 271.602C227.501 284.027 221.257 293.464 209.97 298.172C208.223 298.901 206.398 299.494 204.524 299.956C204.988 307.451 203.923 315.555 200.694 323.74C185.837 361.417 226.51 391.843 226.922 392.145C227.603 392.645 227.752 393.604 227.251 394.285C226.953 394.694 226.487 394.91 226.017 394.91ZM178.556 265.782C174.146 265.782 170.51 268.973 168.081 275.099C165.206 282.358 168.164 287.382 171.153 290.317C177.622 296.67 190.071 299.404 201.128 297.522C199.371 282.334 191.205 270.003 182.657 266.624C181.23 266.06 179.859 265.782 178.556 265.782Z" fill="#312D43"/>
<path d="M58.1484 70.9746C-25.1454 70.9746 -13.3981 198.051 58.1484 198.051C129.695 198.051 141.442 70.9746 58.1484 70.9746Z" fill="#312D43"/>
<path d="M58.1478 191.361C48.0174 191.361 44.3027 198.864 44.3027 205.206C44.3027 211.549 70.9347 211.807 70.9347 205.206C70.9363 198.605 66.8526 191.361 58.1478 191.361Z" fill="#312D43"/>
<path d="M71.3162 204.515C72.826 204.515 74.2837 204.265 75.5714 203.647C78.1025 202.431 79.6336 200.062 80.1206 196.606C81.1082 189.601 77.1945 187.486 75.4657 186.903C70.1372 185.107 62.1597 188.632 58.1495 194.283C54.1393 188.633 46.1587 185.107 40.8333 186.903C39.1045 187.486 35.1893 189.601 36.1769 196.606C36.6638 200.061 38.195 202.429 40.7261 203.647C42.0153 204.265 43.4715 204.515 44.9813 204.515C48.5811 204.515 52.4764 203.098 55.156 201.886C51.5409 215.512 57.4329 223.731 63.6679 232.381C69.9228 241.058 77.0122 250.893 75.8562 268.387C74.7997 284.397 66.4332 293.1 57.5768 302.315C46.6227 313.712 35.2949 325.497 38.5518 351.558C38.6483 352.333 39.3082 352.899 40.0692 352.899C40.1335 352.899 40.1963 352.895 40.2606 352.887C41.0997 352.783 41.6953 352.017 41.5897 351.178C38.5135 326.568 48.846 315.817 59.7848 304.437C68.632 295.232 77.7809 285.714 78.9125 268.589C80.1405 249.996 72.7081 239.686 66.1515 230.591C59.5505 221.433 54.3231 214.121 58.7053 200.69C60.8245 201.824 66.3598 204.515 71.3162 204.515ZM74.4842 189.805C76.7014 190.553 77.5788 192.699 77.0873 196.179C76.7473 198.589 75.8179 200.129 74.2469 200.884C71.3239 202.291 66.5588 200.892 63.0248 199.375C65.023 199.212 66.9967 198.958 68.9214 198.595C69.7529 198.437 70.2995 197.638 70.1433 196.807C69.9856 195.977 69.1894 195.429 68.3549 195.585C65.7672 196.073 63.0784 196.369 60.3667 196.473C63.6495 191.44 70.788 188.555 74.4842 189.805ZM42.0521 200.886C40.4796 200.129 39.5501 198.591 39.2102 196.179C38.7202 192.699 39.5945 190.555 41.8132 189.805C42.3951 189.609 43.0611 189.514 43.7854 189.514C47.6562 189.514 53.1165 192.232 55.8895 196.456C52.8807 196.338 49.8948 195.997 47.0422 195.407C46.2093 195.233 45.4039 195.769 45.2324 196.597C45.0609 197.425 45.5937 198.235 46.4221 198.407C48.6576 198.869 50.959 199.179 53.2941 199.368C49.7616 200.889 44.9889 202.295 42.0521 200.886Z" fill="#FFC661"/>
<path d="M104.178 120.068C104.94 121.059 105.361 121.941 105.68 122.846C105.994 123.743 106.165 124.636 106.237 125.529C106.32 126.42 106.269 127.313 106.036 128.207C105.772 129.103 105.403 129.997 104.554 130.912C102.731 132.88 99.6575 132.998 97.69 131.174C97.6655 131.153 97.6425 131.13 97.618 131.107L97.4174 130.912C96.5661 130.084 96.1741 129.234 95.8786 128.386C95.6152 127.538 95.5248 126.686 95.557 125.833C95.5784 124.982 95.6902 124.132 95.9245 123.289C96.1618 122.453 96.4941 121.59 97.0805 120.846L97.7252 120.029C99.1216 118.256 101.691 117.952 103.464 119.349C103.734 119.56 103.979 119.813 104.178 120.068Z" fill="white"/>
<path d="M58.1495 80.9252C62.4338 79.9453 66.9539 79.763 71.5275 80.3219C76.0951 80.8839 80.73 82.3125 85.0051 84.6184C87.1411 85.776 89.1684 87.1633 91.0441 88.7328C92.8831 90.3405 94.5827 92.109 96.0159 94.0475C98.8869 97.9291 100.873 102.327 101.521 106.908C101.951 109.952 99.8316 112.768 96.7876 113.198C94.9731 113.454 93.2383 112.805 92.0424 111.592L91.7301 111.27C89.1439 108.614 86.9344 106.167 84.5427 104.103C82.203 101.994 79.8006 100.197 77.1577 98.612C74.5011 97.0578 71.5934 95.7517 68.4085 94.6477C65.2206 93.5453 61.7984 92.6403 58.1495 91.642L57.926 91.5808C54.9983 90.78 53.2742 87.7574 54.075 84.8297C54.6278 82.8147 56.2447 81.3662 58.1495 80.9252Z" fill="white"/>
</svg>
