<svg width="89" height="34" viewBox="0 0 89 34" fill="none" xmlns="http://www.w3.org/2000/svg">
<path d="M16.7266 22.1435L18.6297 11.9448H21.6738L19.7693 22.1435H16.7266ZM30.7671 12.1647C30.1641 11.9581 29.2191 11.7363 28.0389 11.7363C25.0309 11.7363 22.9123 13.1196 22.8941 15.102C22.8772 16.5675 24.4068 17.3851 25.5614 17.8729C26.7464 18.3729 27.1447 18.6916 27.139 19.138C27.1314 19.8216 26.1928 20.1338 25.3177 20.1338C24.0994 20.1338 23.4521 19.9792 22.4524 19.5986L22.06 19.4365L21.6329 21.7195C22.3439 22.0044 23.6586 22.2509 25.0238 22.2637C28.2237 22.2637 30.301 20.8962 30.3246 18.7792C30.336 17.6189 29.525 16.7361 27.7687 16.0082C26.7048 15.5364 26.0532 15.2216 26.0601 14.7438C26.0601 14.3199 26.6116 13.8666 27.8035 13.8666C28.7988 13.8525 29.52 14.0507 30.0818 14.2573L30.3546 14.375L30.7671 12.1647ZM38.6006 11.9447H36.2484C35.5198 11.9447 34.9744 12.1263 34.6545 12.7904L30.1336 22.1367H33.3301C33.3301 22.1367 33.8526 20.8801 33.9708 20.6041C34.3202 20.6041 37.4255 20.6085 37.8694 20.6085C37.9604 20.9656 38.2397 22.1367 38.2397 22.1367H41.0644L38.6006 11.9444V11.9447ZM34.8686 18.5303C35.1204 17.9427 36.0814 15.6793 36.0814 15.6793C36.0635 15.7065 36.3314 15.0889 36.485 14.7059L36.6907 15.5853C36.6907 15.5853 37.2736 18.0197 37.3955 18.5302H34.8686V18.5303ZM14.1425 11.9447L11.1622 18.8997L10.8448 17.4864C10.2899 15.857 8.56135 14.0918 6.62891 13.2081L9.35399 22.1272L12.5747 22.1239L17.3671 11.9446L14.1425 11.9445" fill="#0E4595"/>
<path d="M8.38111 11.9443H3.4725L3.43359 12.1565C7.25244 13.0007 9.77922 15.0408 10.8284 17.4924L9.76102 12.8057C9.57681 12.1599 9.04237 11.9671 8.38122 11.9446" fill="#F2AE14"/>
<g clip-path="url(#clip0_416_3469)">
<path d="M61.0011 29.5743V27.8979C61.0011 27.2556 60.5886 26.8365 59.8853 26.8365C59.5289 26.8365 59.1539 26.9522 58.8818 27.309C58.6752 27.0056 58.385 26.8365 57.9445 26.8365C57.6537 26.8365 57.3541 26.9166 57.1195 27.2288V26.8899H56.5098V29.5743H57.1288V28.0937C57.1288 27.6212 57.3916 27.398 57.8041 27.398C58.2166 27.398 58.4232 27.6479 58.4232 28.0937V29.5743H59.0422V28.0937C59.0422 27.6212 59.3331 27.398 59.7175 27.398C60.13 27.398 60.3365 27.6479 60.3365 28.0937V29.5743H61.0011ZM70.1422 26.8899H69.1387V26.0784H68.5196V26.8899H67.9573V27.4247H68.5196V28.6553C68.5196 29.2709 68.7823 29.6366 69.485 29.6366C69.7477 29.6366 70.0472 29.5565 70.2445 29.4401L70.0666 28.9408C69.8888 29.0566 69.6822 29.0833 69.5418 29.0833C69.251 29.0833 69.1293 28.9141 69.1293 28.6375V27.4336H70.1328V26.8899H70.1422ZM75.3642 26.8365C75.0079 26.8365 74.7739 27.0056 74.6328 27.2288V26.8899H74.0137V29.5743H74.6328V28.067C74.6328 27.6212 74.8394 27.3713 75.2231 27.3713C75.3448 27.3713 75.4859 27.398 75.6076 27.4247L75.7854 26.8632C75.6644 26.8365 75.4859 26.8365 75.3642 26.8365ZM67.4606 27.1131C67.1698 26.9166 66.7573 26.8365 66.3167 26.8365C65.6134 26.8365 65.1448 27.1754 65.1448 27.7014C65.1448 28.1472 65.5011 28.3971 66.1101 28.4861L66.401 28.5128C66.7199 28.5663 66.8977 28.6553 66.8977 28.7895C66.8977 28.986 66.663 29.1285 66.2505 29.1285C65.838 29.1285 65.5191 28.986 65.3132 28.8518L65.0224 29.2976C65.3413 29.5208 65.7819 29.6366 66.2225 29.6366C67.0474 29.6366 67.5161 29.2709 67.5161 28.7717C67.5161 28.2992 67.1317 28.0492 66.5507 27.9602L66.2599 27.9335C65.9972 27.9068 65.7912 27.8534 65.7912 27.6836C65.7912 27.487 65.9978 27.3802 66.3161 27.3802C66.6724 27.3802 67.0194 27.5227 67.1972 27.6034L67.4606 27.1131ZM83.8581 26.8365C83.5018 26.8365 83.2678 27.0056 83.1267 27.2288V26.8899H82.5077V29.5743H83.1267V28.067C83.1267 27.6212 83.3333 27.3713 83.7171 27.3713C83.8387 27.3713 83.9798 27.398 84.1015 27.4247L84.2793 26.8632C84.149 26.8365 83.9705 26.8365 83.8581 26.8365ZM75.9826 28.2279C75.9826 29.0394 76.5729 29.6283 77.4828 29.6283C77.8953 29.6283 78.1862 29.5482 78.4863 29.325L78.1955 28.8524C77.9609 29.0216 77.7269 29.1024 77.4641 29.1024C76.9674 29.1024 76.6111 28.7634 76.6111 28.2375C76.6111 27.7382 76.9674 27.3993 77.4641 27.3726C77.7269 27.3726 77.9609 27.4527 78.1955 27.6225L78.4863 27.15C78.1955 26.9268 77.896 26.8466 77.4828 26.8466C76.5736 26.8365 75.9826 27.4254 75.9826 28.2279ZM81.6833 28.2279V26.8899H81.0643V27.2288C80.8577 26.9789 80.5675 26.8365 80.1831 26.8365C79.3862 26.8365 78.7765 27.4254 78.7765 28.2368C78.7765 29.0483 79.3956 29.6372 80.1831 29.6372C80.5956 29.6372 80.8864 29.4948 81.0643 29.2448V29.5838H81.6833V28.2279ZM79.4236 28.2279C79.4236 27.7554 79.7425 27.363 80.2767 27.363C80.7734 27.363 81.1298 27.7287 81.1298 28.2279C81.1298 28.7005 80.7734 29.0928 80.2767 29.0928C79.7425 29.0661 79.4236 28.7094 79.4236 28.2279ZM72.0449 26.8365C71.2199 26.8365 70.6382 27.398 70.6382 28.2368C70.6382 29.075 71.2286 29.6372 72.0823 29.6372C72.4948 29.6372 72.9073 29.5215 73.2262 29.2715L72.9354 28.8524C72.7007 29.0216 72.4106 29.1291 72.1104 29.1291C71.726 29.1291 71.3509 28.9599 71.2573 28.4868H73.3385V28.2635C73.3673 27.3891 72.8418 26.8365 72.0449 26.8365ZM72.0449 27.3357C72.4293 27.3357 72.692 27.5589 72.7482 27.978H71.276C71.3422 27.6212 71.6043 27.3357 72.0449 27.3357ZM87.3553 28.2279V25.8291H86.7362V27.2295C86.5297 26.9795 86.2395 26.8371 85.8551 26.8371C85.0582 26.8371 84.4485 27.426 84.4485 28.2375C84.4485 29.049 85.0675 29.6379 85.8551 29.6379C86.2676 29.6379 86.5584 29.4954 86.7362 29.2455V29.5844H87.3553V28.2279ZM85.0863 28.2279C85.0863 27.7554 85.4052 27.363 85.9393 27.363C86.4361 27.363 86.7924 27.7287 86.7924 28.2279C86.7924 28.7005 86.4361 29.0928 85.9393 29.0928C85.4145 29.0661 85.0863 28.7094 85.0863 28.2279ZM64.4695 28.2279V26.8899H63.8504V27.2288C63.6439 26.9789 63.3537 26.8365 62.9693 26.8365C62.1724 26.8365 61.5627 27.4254 61.5627 28.2368C61.5627 29.0483 62.1817 29.6372 62.9693 29.6372C63.3818 29.6372 63.6726 29.4948 63.8504 29.2448V29.5838H64.4695V28.2279ZM62.1824 28.2279C62.1824 27.7554 62.5013 27.363 63.0355 27.363C63.5322 27.363 63.8886 27.7287 63.8886 28.2279C63.8886 28.7005 63.5322 29.0928 63.0355 29.0928C62.5006 29.0661 62.1824 28.7094 62.1824 28.2279Z" fill="white"/>
<path d="M76.5171 6.51953H67.2637V22.332H76.5171V6.51953Z" fill="#FF5F00"/>
<path d="M67.8445 14.4303C67.8445 11.22 69.4289 8.36584 71.8665 6.51966C70.0754 5.1816 67.8164 4.37012 65.3414 4.37012C59.5003 4.37012 54.7656 8.86507 54.7656 14.4303C54.7656 19.9867 59.4909 24.4906 65.3414 24.4906C67.807 24.4906 70.0667 23.6791 71.8665 22.341C69.4289 20.5215 67.8445 17.6413 67.8445 14.4303Z" fill="#EB001B"/>
<path d="M88.9954 14.4303C88.9954 19.9867 84.2701 24.4906 78.4196 24.4906C75.954 24.4906 73.6943 23.6791 71.8945 22.341C74.3601 20.4948 75.9165 17.6502 75.9165 14.4303C75.9165 11.22 74.3321 8.36584 71.8945 6.51966C73.6856 5.1816 75.9446 4.37012 78.4196 4.37012C84.2701 4.37075 88.9954 8.89242 88.9954 14.4303Z" fill="#F79E1B"/>
</g>
<defs>
<clipPath id="clip0_416_3469">
<rect width="34.2298" height="32.5611" fill="white" transform="translate(54.7695 0.719727)"/>
</clipPath>
</defs>
</svg>
